<svg xmlns="http://www.w3.org/2000/svg" viewBox="0 0 64 64" width="64" height="64">
  <!-- City skyline base -->
  <rect x="4" y="28" width="10" height="28" rx="1" fill="#3B82F6"/>
  <rect x="16" y="18" width="10" height="38" rx="1" fill="#3B82F6"/>
  <rect x="28" y="12" width="10" height="44" rx="1" fill="#3B82F6"/>
  <rect x="40" y="22" width="10" height="34" rx="1" fill="#3B82F6"/>
  <rect x="52" y="32" width="8" height="24" rx="1" fill="#3B82F6"/>
  <!-- Windows -->
  <rect x="7" y="32" width="3" height="3" rx="0.5" fill="#ffffff" opacity="0.7"/>
  <rect x="7" y="38" width="3" height="3" rx="0.5" fill="#ffffff" opacity="0.7"/>
  <rect x="7" y="44" width="3" height="3" rx="0.5" fill="#ffffff" opacity="0.5"/>
  <rect x="19" y="22" width="3" height="3" rx="0.5" fill="#ffffff" opacity="0.7"/>
  <rect x="19" y="28" width="3" height="3" rx="0.5" fill="#ffffff" opacity="0.7"/>
  <rect x="19" y="34" width="3" height="3" rx="0.5" fill="#ffffff" opacity="0.5"/>
  <rect x="19" y="40" width="3" height="3" rx="0.5" fill="#ffffff" opacity="0.7"/>
  <rect x="31" y="16" width="3" height="3" rx="0.5" fill="#ffffff" opacity="0.7"/>
  <rect x="31" y="22" width="3" height="3" rx="0.5" fill="#ffffff" opacity="0.7"/>
  <rect x="31" y="28" width="3" height="3" rx="0.5" fill="#ffffff" opacity="0.5"/>
  <rect x="31" y="34" width="3" height="3" rx="0.5" fill="#ffffff" opacity="0.7"/>
  <rect x="31" y="40" width="3" height="3" rx="0.5" fill="#ffffff" opacity="0.7"/>
  <rect x="43" y="26" width="3" height="3" rx="0.5" fill="#ffffff" opacity="0.7"/>
  <rect x="43" y="32" width="3" height="3" rx="0.5" fill="#ffffff" opacity="0.5"/>
  <rect x="43" y="38" width="3" height="3" rx="0.5" fill="#ffffff" opacity="0.7"/>
  <rect x="54" y="36" width="3" height="3" rx="0.5" fill="#ffffff" opacity="0.7"/>
  <rect x="54" y="42" width="3" height="3" rx="0.5" fill="#ffffff" opacity="0.5"/>
  <!-- Monitoring pulse line -->
  <polyline points="2,10 12,10 18,4 24,14 30,7 36,10 42,6 48,12 54,8 62,8" fill="none" stroke="#3B82F6" stroke-width="2.5" stroke-linecap="round" stroke-linejoin="round"/>
  <!-- Ground line -->
  <rect x="0" y="56" width="64" height="4" rx="2" fill="#3B82F6" opacity="0.3"/>
</svg>
